<svg width="36" height="43" viewBox="0 0 36 43" fill="none" xmlns="http://www.w3.org/2000/svg">
<path fill-rule="evenodd" clip-rule="evenodd" d="M7.56183 21.1249C5.01139 23.6072 3.56106 26.8005 3.80703 30.1349C3.8768 30.5073 3.96268 30.8738 4.06413 31.2338C2.80587 27.6085 2.53113 23.2294 3.34779 18.6819C5.1321 8.74631 11.7988 1.80785 18.2382 3.18445C23.3366 4.27436 26.764 10.2499 27.0848 17.6227C25.6698 17.0112 24.1079 16.5869 22.4507 16.3839C22.2616 14.7248 21.8783 13.2198 21.3511 11.9385C20.169 9.06601 18.5568 7.88087 17.292 7.61049C16.0873 7.35295 14.3132 7.74309 12.311 9.82695C10.3296 11.8892 8.5628 15.2488 7.80257 19.482C7.7029 20.037 7.62293 20.5851 7.56183 21.1249ZM12.6308 40.0096C10.3907 39.2365 8.46987 37.9888 6.9819 36.3966C8.45224 38.0785 10.3009 39.3213 12.4997 39.972C12.5435 39.9849 12.5872 39.9975 12.6308 40.0096Z" fill="#AB1A39"/>
<path fill-rule="evenodd" clip-rule="evenodd" d="M8.30946 29.5634C9.1918 33.5093 13.218 36.9387 19.566 36.2905C26.5593 35.5763 30.1811 30.777 29.9276 27.3395C29.6869 24.0772 25.6615 20.1384 18.6824 20.8511C11.8495 21.5489 8.23514 26.1466 8.30946 29.5634ZM3.80701 30.135C5.06525 36.8508 11.5664 41.657 20.0258 40.7931C28.4852 39.9292 34.9393 33.7568 34.4413 27.0066C33.9434 20.2564 26.682 15.4846 18.2225 16.3485C9.76311 17.2124 3.30906 23.3848 3.80701 30.135Z" fill="#AB1A39"/>
</svg>
