<svg width="155" height="45" viewBox="0 0 155 45" fill="none" xmlns="http://www.w3.org/2000/svg">
<path d="M148.477 44.3542H6.31583C3.18971 44.3542 0.629395 41.8579 0.629395 38.81V5.54433C0.629395 2.49636 3.18971 5.24521e-05 6.31583 5.24521e-05H148.477C151.603 5.24521e-05 154.163 2.49636 154.163 5.54433V38.81C154.163 41.8579 151.603 44.3542 148.477 44.3542Z" fill="white"/>
<path d="M148.477 0.888519C151.11 0.888519 153.252 2.97733 153.252 5.54433V38.81C153.252 41.377 151.11 43.4658 148.477 43.4658H6.31583C3.68301 43.4658 1.54065 41.377 1.54065 38.81V5.54433C1.54065 2.97733 3.68301 0.888519 6.31583 0.888519H148.477ZM148.477 5.24521e-05H6.31583C3.18971 5.24521e-05 0.629395 2.49636 0.629395 5.54433V38.81C0.629395 41.8579 3.18971 44.3542 6.31583 44.3542H148.477C151.603 44.3542 154.163 41.8579 154.163 38.81V5.54433C154.163 2.49636 151.603 5.24521e-05 148.477 5.24521e-05Z" fill="#A6A6A6"/>
<path d="M11.6441 8.35936C11.31 8.70034 11.1167 9.2312 11.1167 9.91869V34.441C11.1167 35.1285 11.31 35.6594 11.6441 36.0003L11.7266 36.0752L25.8204 22.3393V22.0149L11.7266 8.27897L11.6441 8.35936Z" fill="black"/>
<path d="M32.2189 26.9203L27.5261 22.3393V22.015L32.2245 17.434L32.3297 17.4936L37.8939 20.5804C39.4819 21.4564 39.4819 22.8979 37.8939 23.7795L32.3297 26.8607L32.2189 26.9203Z" fill="black"/>
<path d="M31.477 27.7136L26.6734 23.0301L12.4971 36.8534C13.0245 37.3939 13.8846 37.4591 14.8626 36.9185L31.477 27.7136Z" fill="black"/>
<path d="M31.477 16.6407L14.8626 7.43582C13.8846 6.90079 13.0245 6.96594 12.4971 7.5065L26.6734 21.3242L31.477 16.6407Z" fill="black"/>
<path d="M54.5565 11.3588C54.5565 12.2847 54.2721 13.0263 53.712 13.5793C53.068 14.2349 52.2293 14.5648 51.2015 14.5648C50.2191 14.5648 49.3804 14.2294 48.6923 13.5682C48.0028 12.8974 47.6588 12.0741 47.6588 11.0886C47.6588 10.1031 48.0028 9.27975 48.6923 8.61443C49.3804 7.94773 50.2191 7.6123 51.2015 7.6123C51.6905 7.6123 52.1568 7.71072 52.6017 7.89368C53.0453 8.07802 53.4064 8.32752 53.668 8.63522L53.0737 9.22015C52.6174 8.69483 51.9961 8.43563 51.2015 8.43563C50.485 8.43563 49.8637 8.67958 49.3363 9.17163C48.8146 9.66507 48.553 10.304 48.553 11.0886C48.553 11.8731 48.8146 12.5176 49.3363 13.011C49.8637 13.4975 50.485 13.747 51.2015 13.747C51.962 13.747 52.6017 13.4976 53.1064 13.0055C53.4391 12.6798 53.6282 12.2307 53.6779 11.6569H51.2015V10.8557H54.5053C54.5451 11.029 54.5565 11.1967 54.5565 11.3588Z" fill="black" stroke="black" stroke-width="0.0454915" stroke-miterlimit="10"/>
<path d="M59.7981 8.58116H56.6947V10.688H59.4924V11.4891H56.6947V13.596H59.7981V14.4124H55.8162V7.76477H59.7981V8.58116Z" fill="black" stroke="black" stroke-width="0.0454915" stroke-miterlimit="10"/>
<path d="M63.4971 14.4124H62.6185V8.58116H60.715V7.76477H65.402V8.58116H63.4971V14.4124Z" fill="black" stroke="black" stroke-width="0.0454915" stroke-miterlimit="10"/>
<path d="M68.794 14.4124V7.76477H69.6711V14.4124H68.794Z" fill="black" stroke="black" stroke-width="0.0454915" stroke-miterlimit="10"/>
<path d="M73.5591 14.4124H72.6877V8.58116H70.777V7.76477H75.4698V8.58116H73.5591V14.4124Z" fill="black" stroke="black" stroke-width="0.0454915" stroke-miterlimit="10"/>
<path d="M84.3435 13.5572C83.6711 14.2294 82.838 14.5648 81.8443 14.5648C80.8449 14.5648 80.0119 14.2294 79.3394 13.5572C78.6684 12.8863 78.3344 12.063 78.3344 11.0886C78.3344 10.1142 78.6684 9.29083 79.3394 8.61998C80.0119 7.94773 80.8449 7.6123 81.8443 7.6123C82.8323 7.6123 83.6654 7.94773 84.3378 8.62552C85.0145 9.30192 85.3486 10.1197 85.3486 11.0886C85.3486 12.063 85.0145 12.8863 84.3435 13.5572ZM79.9891 13C80.4952 13.4976 81.1108 13.747 81.8443 13.747C82.5722 13.747 83.1934 13.4976 83.6938 13C84.1985 12.5024 84.4544 11.8634 84.4544 11.0886C84.4544 10.3138 84.1985 9.67478 83.6938 9.17718C83.1934 8.67958 82.5722 8.43009 81.8443 8.43009C81.1108 8.43009 80.4952 8.67958 79.9891 9.17718C79.4844 9.67478 79.2285 10.3138 79.2285 11.0886C79.2285 11.8634 79.4844 12.5024 79.9891 13Z" fill="black" stroke="black" stroke-width="0.0454915" stroke-miterlimit="10"/>
<path d="M86.5812 14.4124V7.76477H87.6474L90.9626 12.9348H91.001L90.9626 11.6568V7.76477H91.8397V14.4124H90.9242L87.4526 8.98728H87.4142L87.4526 10.2708V14.4124H86.5812Z" fill="black" stroke="black" stroke-width="0.0454915" stroke-miterlimit="10"/>
<path d="M78.1184 24.1205C75.4472 24.1205 73.265 26.1026 73.265 28.8373C73.265 31.5498 75.4472 33.5527 78.1184 33.5527C80.7953 33.5527 82.9774 31.5498 82.9774 28.8373C82.9774 26.1026 80.7953 24.1205 78.1184 24.1205ZM78.1184 31.6953C76.6527 31.6953 75.3917 30.5158 75.3917 28.8373C75.3917 27.1366 76.6527 25.9778 78.1184 25.9778C79.584 25.9778 80.8507 27.1366 80.8507 28.8373C80.8507 30.5158 79.584 31.6953 78.1184 31.6953ZM67.5288 24.1205C64.8519 24.1205 62.6754 26.1026 62.6754 28.8373C62.6754 31.5498 64.8519 33.5527 67.5288 33.5527C70.2043 33.5527 72.3822 31.5498 72.3822 28.8373C72.3822 26.1026 70.2043 24.1205 67.5288 24.1205ZM67.5288 31.6953C66.0617 31.6953 64.7965 30.5158 64.7965 28.8373C64.7965 27.1366 66.0617 25.9778 67.5288 25.9778C68.9945 25.9778 70.2555 27.1366 70.2555 28.8373C70.2555 30.5158 68.9945 31.6953 67.5288 31.6953ZM54.9277 25.5661V27.5704H59.8365C59.6929 28.6903 59.3091 29.5137 58.7205 30.0875C58.004 30.7805 56.8881 31.5498 54.9277 31.5498C51.9068 31.5498 49.5412 29.1727 49.5412 26.2273C49.5412 23.2819 51.9068 20.9048 54.9277 20.9048C56.5611 20.9048 57.7496 21.5271 58.6267 22.3338L60.0753 20.9214C58.8485 19.7793 57.2165 18.9019 54.9277 18.9019C50.7851 18.9019 47.3036 22.1883 47.3036 26.2273C47.3036 30.2663 50.7851 33.5527 54.9277 33.5527C57.1667 33.5527 58.8485 32.8375 60.1706 31.4957C61.5254 30.1748 61.9476 28.3175 61.9476 26.8178C61.9476 26.352 61.9078 25.9238 61.8367 25.5661H54.9277ZM106.455 27.1199C106.056 26.0651 104.823 24.1205 102.313 24.1205C99.8249 24.1205 97.7536 26.0319 97.7536 28.8373C97.7536 31.4791 99.8036 33.5527 102.552 33.5527C104.774 33.5527 106.056 32.2317 106.583 31.4625L104.934 30.3911C104.384 31.1756 103.635 31.6953 102.552 31.6953C101.475 31.6953 100.703 31.2144 100.209 30.2663L106.678 27.6563L106.455 27.1199ZM99.859 28.6903C99.8036 26.8718 101.308 25.9404 102.385 25.9404C103.23 25.9404 103.946 26.352 104.185 26.9411L99.859 28.6903ZM94.6005 33.2658H96.7272V19.4051H94.6005V33.2658ZM91.1176 25.1711H91.0465C90.5688 24.6195 89.6576 24.1205 88.5032 24.1205C86.0808 24.1205 83.8659 26.194 83.8659 28.8525C83.8659 31.4957 86.0808 33.5527 88.5032 33.5527C89.6576 33.5527 90.5688 33.0495 91.0465 32.4812H91.1176V33.1576C91.1176 34.9609 90.1295 35.9298 88.5359 35.9298C87.2366 35.9298 86.4305 35.015 86.0979 34.2457L84.2483 34.9983C84.7814 36.2486 86.1931 37.7871 88.5359 37.7871C91.0294 37.7871 93.1334 36.3567 93.1334 32.8763V24.4074H91.1176V25.1711ZM88.6852 31.6953C87.2195 31.6953 85.9927 30.4992 85.9927 28.8525C85.9927 27.1906 87.2195 25.9778 88.6852 25.9778C90.1295 25.9778 91.2683 27.1906 91.2683 28.8525C91.2683 30.4992 90.1295 31.6953 88.6852 31.6953ZM116.412 19.4051H111.326V33.2658H113.447V28.0139H116.412C118.768 28.0139 121.078 26.352 121.078 23.7088C121.078 21.067 118.762 19.4051 116.412 19.4051ZM116.468 26.0859H113.447V21.3331H116.468C118.051 21.3331 118.955 22.6152 118.955 23.7088C118.955 24.7816 118.051 26.0859 116.468 26.0859ZM129.579 24.0941C128.047 24.0941 126.453 24.7539 125.798 26.2162L127.68 26.9855C128.085 26.2162 128.83 25.9667 129.618 25.9667C130.718 25.9667 131.834 26.6112 131.851 27.7492V27.8947C131.467 27.6785 130.645 27.3583 129.635 27.3583C127.607 27.3583 125.542 28.4464 125.542 30.477C125.542 32.3343 127.202 33.5305 129.069 33.5305C130.496 33.5305 131.284 32.9026 131.778 32.1721H131.851V33.2436H133.899V27.9266C133.899 25.4691 132.017 24.0941 129.579 24.0941ZM129.323 31.6898C128.63 31.6898 127.663 31.3544 127.663 30.5158C127.663 29.443 128.868 29.0313 129.912 29.0313C130.846 29.0313 131.284 29.2323 131.851 29.497C131.685 30.7805 130.552 31.6898 129.323 31.6898ZM141.363 24.3977L138.925 30.4063H138.852L136.332 24.3977H134.044L137.832 32.7945L135.671 37.4669H137.887L143.723 24.3977H141.363ZM122.244 33.2658H124.37V19.4051H122.244V33.2658Z" fill="black"/>
</svg>
