<svg width="720" height="883" viewBox="0 0 720 883" fill="none" xmlns="http://www.w3.org/2000/svg">
<g clip-path="url(#clip0_104_1104)">
<rect width="720" height="883" fill="#AB1A39"/>
<rect x="193.669" y="274.724" width="332.66" height="334.119" rx="7.29518" fill="#FEF3EE"/>
<rect width="151.74" height="18.9675" transform="translate(284.13 300.987)" fill="#E2D3D3"/>
<rect width="224.692" height="18.9675" transform="translate(247.654 333.815)" fill="#E2D3D3"/>
<rect width="224.692" height="18.9675" transform="translate(247.654 366.643)" fill="#E2D3D3"/>
<rect width="224.692" height="18.9675" transform="translate(247.654 399.472)" fill="#E2D3D3"/>
<rect width="224.692" height="18.9675" transform="translate(247.654 432.3)" fill="#E2D3D3"/>
<rect width="224.692" height="18.9675" transform="translate(247.654 465.128)" fill="#E2D3D3"/>
<rect width="224.692" height="18.9675" transform="translate(247.654 497.957)" fill="#E2D3D3"/>
<rect width="224.692" height="18.9675" transform="translate(247.654 530.785)" fill="#E2D3D3"/>
<rect width="110.157" height="18.9675" transform="translate(304.921 563.613)" fill="#E2D3D3"/>
<rect width="400.506" height="70.0338" transform="translate(159.747 406.483)" fill="#28B254"/>
<path d="M267.673 438.217L259.644 445.877L255.636 442.047" stroke="white" stroke-width="1.45904" stroke-linecap="round" stroke-linejoin="round"/>
<path d="M261.655 454.631C268.907 454.631 274.786 448.752 274.786 441.5C274.786 434.248 268.907 428.369 261.655 428.369C254.403 428.369 248.523 434.248 248.523 441.5C248.523 448.752 254.403 454.631 261.655 454.631Z" stroke="white" stroke-width="1.45904" stroke-linecap="round" stroke-linejoin="round"/>
<path d="M291.171 449.5V442.059L291.322 443.049L285.279 434.447H287.344L292.29 441.565L291.859 441.522L296.461 434.447H298.418L292.591 443.199L292.87 441.952V449.5H291.171ZM303.593 449.715C302.489 449.715 301.5 449.464 300.626 448.962C299.765 448.446 299.084 447.751 298.583 446.876C298.081 445.988 297.83 444.977 297.83 443.844C297.83 442.712 298.081 441.708 298.583 440.834C299.084 439.959 299.765 439.271 300.626 438.769C301.5 438.267 302.489 438.017 303.593 438.017C304.697 438.017 305.679 438.267 306.539 438.769C307.414 439.271 308.095 439.959 308.582 440.834C309.084 441.708 309.335 442.712 309.335 443.844C309.335 444.977 309.084 445.988 308.582 446.876C308.095 447.751 307.414 448.446 306.539 448.962C305.679 449.464 304.697 449.715 303.593 449.715ZM303.593 448.21C304.382 448.21 305.084 448.023 305.701 447.651C306.331 447.264 306.819 446.74 307.163 446.081C307.521 445.421 307.693 444.676 307.679 443.844C307.693 442.998 307.521 442.253 307.163 441.608C306.819 440.963 306.331 440.454 305.701 440.081C305.084 439.708 304.382 439.522 303.593 439.522C302.805 439.522 302.095 439.708 301.464 440.081C300.848 440.454 300.36 440.97 300.002 441.629C299.644 442.274 299.471 443.013 299.486 443.844C299.471 444.676 299.644 445.421 300.002 446.081C300.36 446.74 300.848 447.264 301.464 447.651C302.095 448.023 302.805 448.21 303.593 448.21ZM315.77 449.715C314.938 449.715 314.221 449.543 313.619 449.199C313.017 448.841 312.551 448.332 312.222 447.672C311.906 446.998 311.748 446.174 311.748 445.199V438.21H313.383V444.791C313.383 445.923 313.641 446.79 314.157 447.393C314.687 447.98 315.426 448.274 316.372 448.274C316.831 448.274 317.246 448.195 317.619 448.038C318.006 447.866 318.343 447.643 318.63 447.371C318.917 447.099 319.139 446.798 319.297 446.468C319.469 446.124 319.555 445.78 319.555 445.436V438.21H321.189V449.5H319.576L319.555 447.048L319.877 446.876C319.705 447.393 319.411 447.873 318.995 448.317C318.594 448.747 318.114 449.091 317.555 449.349C317.01 449.593 316.415 449.715 315.77 449.715ZM324.264 449.5V438.21H325.899L325.92 441.479L325.727 440.92C325.87 440.404 326.114 439.923 326.458 439.479C326.816 439.034 327.246 438.683 327.748 438.425C328.25 438.153 328.802 438.017 329.404 438.017C329.648 438.017 329.877 438.038 330.092 438.081C330.307 438.11 330.486 438.153 330.63 438.21L330.199 439.995C329.999 439.923 329.791 439.866 329.576 439.823C329.375 439.766 329.182 439.737 328.995 439.737C328.551 439.737 328.135 439.83 327.748 440.017C327.375 440.189 327.053 440.425 326.78 440.726C326.508 441.027 326.293 441.371 326.135 441.758C325.992 442.131 325.92 442.518 325.92 442.92V449.5H324.264ZM338.228 449.5V438.21H339.862L339.884 440.769L339.497 440.92C339.669 440.49 339.891 440.103 340.163 439.758C340.436 439.4 340.751 439.099 341.11 438.855C341.482 438.597 341.877 438.396 342.292 438.253C342.723 438.11 343.16 438.038 343.604 438.038C344.235 438.038 344.794 438.146 345.282 438.361C345.783 438.561 346.192 438.877 346.507 439.307C346.837 439.737 347.074 440.282 347.217 440.941H346.916L347.045 440.576C347.217 440.203 347.439 439.866 347.712 439.565C347.998 439.25 348.321 438.977 348.679 438.748C349.052 438.518 349.439 438.346 349.841 438.232C350.256 438.103 350.665 438.038 351.066 438.038C351.898 438.038 352.593 438.203 353.152 438.533C353.711 438.862 354.134 439.371 354.421 440.06C354.708 440.733 354.851 441.594 354.851 442.64V449.5H353.217V442.705C353.217 441.615 352.995 440.819 352.55 440.318C352.106 439.816 351.446 439.565 350.572 439.565C350.113 439.565 349.683 439.644 349.281 439.801C348.894 439.945 348.557 440.153 348.271 440.425C347.984 440.697 347.762 440.999 347.604 441.328C347.446 441.658 347.368 442.009 347.368 442.382V449.5H345.712V442.683C345.712 441.637 345.489 440.855 345.045 440.339C344.601 439.823 343.963 439.565 343.131 439.565C342.658 439.565 342.221 439.644 341.819 439.801C341.432 439.959 341.088 440.167 340.787 440.425C340.5 440.683 340.278 440.977 340.12 441.307C339.963 441.622 339.884 441.945 339.884 442.274V449.5H338.228ZM362.921 449.715C361.788 449.715 360.785 449.471 359.91 448.984C359.035 448.482 358.347 447.794 357.846 446.919C357.358 446.045 357.114 445.049 357.114 443.93C357.114 443.056 357.251 442.26 357.523 441.543C357.81 440.812 358.197 440.189 358.684 439.672C359.186 439.142 359.781 438.733 360.469 438.447C361.157 438.16 361.91 438.017 362.727 438.017C363.444 438.017 364.111 438.146 364.727 438.404C365.358 438.662 365.903 439.034 366.361 439.522C366.82 439.995 367.171 440.561 367.415 441.221C367.659 441.866 367.766 442.583 367.738 443.371L367.716 444.188H358.297L357.953 442.855H366.361L366.06 443.221L366.082 442.683C366.053 442.067 365.881 441.522 365.566 441.049C365.25 440.576 364.842 440.203 364.34 439.93C363.853 439.658 363.315 439.522 362.727 439.522C361.896 439.522 361.179 439.701 360.577 440.06C359.975 440.404 359.516 440.898 359.2 441.543C358.899 442.174 358.742 442.934 358.727 443.823C358.742 444.712 358.928 445.486 359.286 446.145C359.645 446.79 360.147 447.299 360.792 447.672C361.451 448.031 362.211 448.21 363.071 448.21C363.688 448.21 364.261 448.109 364.792 447.909C365.322 447.694 365.86 447.342 366.404 446.855L367.222 448.016C366.877 448.36 366.469 448.661 365.996 448.919C365.537 449.163 365.042 449.357 364.512 449.5C363.982 449.643 363.451 449.715 362.921 449.715ZM373.872 449.715C372.926 449.715 372.073 449.55 371.313 449.22C370.553 448.876 369.937 448.389 369.464 447.758L370.582 446.79C370.998 447.307 371.492 447.694 372.066 447.952C372.639 448.21 373.292 448.339 374.023 448.339C374.395 448.339 374.725 448.296 375.012 448.21C375.299 448.109 375.542 447.98 375.743 447.823C375.944 447.651 376.087 447.457 376.173 447.242C376.273 447.013 376.324 446.769 376.324 446.511C376.324 446.038 376.137 445.658 375.765 445.371C375.564 445.228 375.284 445.092 374.926 444.963C374.582 444.819 374.159 444.683 373.657 444.554C372.883 444.368 372.231 444.153 371.7 443.909C371.184 443.651 370.776 443.357 370.474 443.027C370.245 442.769 370.073 442.49 369.958 442.188C369.844 441.887 369.786 441.543 369.786 441.156C369.786 440.54 369.958 439.995 370.302 439.522C370.646 439.049 371.112 438.683 371.7 438.425C372.302 438.153 372.983 438.017 373.743 438.017C374.259 438.017 374.768 438.088 375.27 438.232C375.786 438.375 376.259 438.583 376.689 438.855C377.119 439.128 377.492 439.457 377.807 439.844L376.84 440.877C376.553 440.576 376.238 440.318 375.894 440.103C375.564 439.873 375.22 439.701 374.861 439.586C374.503 439.457 374.152 439.393 373.808 439.393C373.435 439.393 373.098 439.436 372.797 439.522C372.496 439.594 372.238 439.708 372.023 439.866C371.822 440.009 371.672 440.189 371.571 440.404C371.471 440.604 371.421 440.841 371.421 441.113C371.435 441.314 371.485 441.515 371.571 441.715C371.657 441.902 371.779 442.059 371.937 442.188C372.137 442.346 372.424 442.504 372.797 442.662C373.17 442.805 373.621 442.934 374.152 443.049C374.84 443.221 375.42 443.414 375.894 443.629C376.367 443.83 376.747 444.074 377.033 444.36C377.334 444.618 377.549 444.92 377.678 445.264C377.807 445.608 377.872 446.002 377.872 446.446C377.872 447.091 377.7 447.665 377.356 448.167C377.012 448.654 376.539 449.034 375.937 449.306C375.334 449.579 374.646 449.715 373.872 449.715ZM384.162 449.715C383.216 449.715 382.363 449.55 381.603 449.22C380.844 448.876 380.227 448.389 379.754 447.758L380.872 446.79C381.288 447.307 381.783 447.694 382.356 447.952C382.929 448.21 383.582 448.339 384.313 448.339C384.686 448.339 385.015 448.296 385.302 448.21C385.589 448.109 385.833 447.98 386.033 447.823C386.234 447.651 386.377 447.457 386.463 447.242C386.564 447.013 386.614 446.769 386.614 446.511C386.614 446.038 386.428 445.658 386.055 445.371C385.854 445.228 385.575 445.092 385.216 444.963C384.872 444.819 384.449 444.683 383.947 444.554C383.173 444.368 382.521 444.153 381.99 443.909C381.474 443.651 381.066 443.357 380.765 443.027C380.535 442.769 380.363 442.49 380.249 442.188C380.134 441.887 380.077 441.543 380.077 441.156C380.077 440.54 380.249 439.995 380.593 439.522C380.937 439.049 381.403 438.683 381.99 438.425C382.593 438.153 383.274 438.017 384.033 438.017C384.549 438.017 385.058 438.088 385.56 438.232C386.076 438.375 386.549 438.583 386.98 438.855C387.41 439.128 387.782 439.457 388.098 439.844L387.13 440.877C386.843 440.576 386.528 440.318 386.184 440.103C385.854 439.873 385.51 439.701 385.152 439.586C384.793 439.457 384.442 439.393 384.098 439.393C383.725 439.393 383.388 439.436 383.087 439.522C382.786 439.594 382.528 439.708 382.313 439.866C382.112 440.009 381.962 440.189 381.861 440.404C381.761 440.604 381.711 440.841 381.711 441.113C381.725 441.314 381.775 441.515 381.861 441.715C381.947 441.902 382.069 442.059 382.227 442.188C382.428 442.346 382.714 442.504 383.087 442.662C383.46 442.805 383.912 442.934 384.442 443.049C385.13 443.221 385.711 443.414 386.184 443.629C386.657 443.83 387.037 444.074 387.324 444.36C387.625 444.618 387.84 444.92 387.969 445.264C388.098 445.608 388.162 446.002 388.162 446.446C388.162 447.091 387.99 447.665 387.646 448.167C387.302 448.654 386.829 449.034 386.227 449.306C385.625 449.579 384.937 449.715 384.162 449.715ZM397.807 449.5V441.973C397.807 441.242 397.549 440.654 397.033 440.21C396.517 439.766 395.836 439.543 394.99 439.543C394.288 439.543 393.65 439.687 393.076 439.973C392.503 440.26 391.994 440.69 391.55 441.264L390.474 440.189C391.119 439.457 391.822 438.913 392.582 438.554C393.356 438.196 394.195 438.017 395.098 438.017C395.958 438.017 396.703 438.16 397.334 438.447C397.965 438.733 398.445 439.149 398.775 439.694C399.119 440.239 399.291 440.898 399.291 441.672V449.5H397.807ZM393.937 449.715C393.205 449.715 392.553 449.572 391.98 449.285C391.406 448.998 390.947 448.604 390.603 448.102C390.274 447.586 390.109 446.984 390.109 446.296C390.109 445.737 390.209 445.242 390.41 444.812C390.625 444.382 390.933 444.024 391.335 443.737C391.736 443.45 392.245 443.235 392.861 443.092C393.478 442.934 394.18 442.855 394.969 442.855H398.539L398.409 444.21H394.754C394.252 444.21 393.808 444.253 393.42 444.339C393.048 444.425 392.725 444.561 392.453 444.748C392.195 444.92 391.994 445.135 391.851 445.393C391.722 445.636 391.657 445.93 391.657 446.274C391.657 446.676 391.757 447.034 391.958 447.35C392.173 447.651 392.453 447.887 392.797 448.059C393.155 448.217 393.557 448.296 394.001 448.296C394.589 448.296 395.141 448.195 395.657 447.995C396.173 447.78 396.632 447.493 397.033 447.135C397.449 446.762 397.779 446.346 398.022 445.887L398.474 446.919C398.159 447.464 397.764 447.952 397.291 448.382C396.818 448.798 396.295 449.127 395.721 449.371C395.162 449.6 394.567 449.715 393.937 449.715ZM407.165 454.511C406.362 454.511 405.581 454.382 404.821 454.123C404.076 453.865 403.466 453.521 402.993 453.091L403.595 451.801C404.026 452.174 404.556 452.475 405.187 452.704C405.832 452.934 406.484 453.048 407.144 453.048C407.947 453.048 408.642 452.891 409.23 452.575C409.817 452.26 410.276 451.801 410.606 451.199C410.936 450.597 411.101 449.866 411.101 449.005V446.532L411.316 446.597C411.215 447.156 410.95 447.672 410.52 448.145C410.104 448.618 409.588 448.998 408.972 449.285C408.369 449.572 407.731 449.715 407.058 449.715C405.997 449.715 405.043 449.464 404.198 448.962C403.366 448.446 402.707 447.751 402.219 446.876C401.746 446.002 401.51 445.006 401.51 443.887C401.51 442.755 401.746 441.751 402.219 440.877C402.707 439.988 403.366 439.293 404.198 438.791C405.029 438.275 405.954 438.017 406.972 438.017C407.416 438.017 407.846 438.074 408.262 438.189C408.678 438.303 409.065 438.468 409.423 438.683C409.782 438.884 410.104 439.113 410.391 439.371C410.678 439.629 410.914 439.909 411.101 440.21C411.287 440.511 411.409 440.812 411.466 441.113L411.101 441.221L411.122 438.21H412.735V448.898C412.735 449.787 412.599 450.575 412.326 451.263C412.068 451.966 411.688 452.554 411.187 453.027C410.699 453.514 410.111 453.88 409.423 454.123C408.749 454.382 407.997 454.511 407.165 454.511ZM407.208 448.188C407.968 448.188 408.642 448.009 409.23 447.651C409.832 447.278 410.298 446.769 410.627 446.124C410.971 445.464 411.144 444.712 411.144 443.866C411.144 443.02 410.971 442.274 410.627 441.629C410.298 440.97 409.832 440.454 409.23 440.081C408.642 439.708 407.961 439.522 407.187 439.522C406.413 439.522 405.717 439.715 405.101 440.103C404.499 440.475 404.026 440.991 403.681 441.651C403.337 442.296 403.165 443.041 403.165 443.887C403.165 444.704 403.337 445.443 403.681 446.102C404.026 446.747 404.499 447.256 405.101 447.629C405.717 448.002 406.42 448.188 407.208 448.188ZM420.945 449.715C419.812 449.715 418.809 449.471 417.934 448.984C417.06 448.482 416.372 447.794 415.87 446.919C415.383 446.045 415.139 445.049 415.139 443.93C415.139 443.056 415.275 442.26 415.547 441.543C415.834 440.812 416.221 440.189 416.709 439.672C417.21 439.142 417.805 438.733 418.494 438.447C419.182 438.16 419.934 438.017 420.752 438.017C421.468 438.017 422.135 438.146 422.751 438.404C423.382 438.662 423.927 439.034 424.386 439.522C424.845 439.995 425.196 440.561 425.44 441.221C425.683 441.866 425.791 442.583 425.762 443.371L425.741 444.188H416.322L415.978 442.855H424.386L424.085 443.221L424.106 442.683C424.078 442.067 423.906 441.522 423.59 441.049C423.275 440.576 422.866 440.203 422.364 439.93C421.877 439.658 421.339 439.522 420.752 439.522C419.92 439.522 419.203 439.701 418.601 440.06C417.999 440.404 417.54 440.898 417.225 441.543C416.924 442.174 416.766 442.934 416.752 443.823C416.766 444.712 416.952 445.486 417.311 446.145C417.669 446.79 418.171 447.299 418.816 447.672C419.476 448.031 420.235 448.21 421.096 448.21C421.712 448.21 422.286 448.109 422.816 447.909C423.346 447.694 423.884 447.342 424.429 446.855L425.246 448.016C424.902 448.36 424.493 448.661 424.02 448.919C423.561 449.163 423.067 449.357 422.536 449.5C422.006 449.643 421.476 449.715 420.945 449.715ZM437.924 449.715C436.978 449.715 436.124 449.55 435.365 449.22C434.605 448.876 433.988 448.389 433.515 447.758L434.634 446.79C435.049 447.307 435.544 447.694 436.117 447.952C436.691 448.21 437.343 448.339 438.074 448.339C438.447 448.339 438.777 448.296 439.063 448.21C439.35 448.109 439.594 447.98 439.795 447.823C439.995 447.651 440.139 447.457 440.225 447.242C440.325 447.013 440.375 446.769 440.375 446.511C440.375 446.038 440.189 445.658 439.816 445.371C439.615 445.228 439.336 445.092 438.977 444.963C438.633 444.819 438.21 444.683 437.709 444.554C436.935 444.368 436.282 444.153 435.752 443.909C435.236 443.651 434.827 443.357 434.526 443.027C434.297 442.769 434.125 442.49 434.01 442.188C433.895 441.887 433.838 441.543 433.838 441.156C433.838 440.54 434.01 439.995 434.354 439.522C434.698 439.049 435.164 438.683 435.752 438.425C436.354 438.153 437.035 438.017 437.795 438.017C438.311 438.017 438.82 438.088 439.322 438.232C439.838 438.375 440.311 438.583 440.741 438.855C441.171 439.128 441.544 439.457 441.859 439.844L440.891 440.877C440.605 440.576 440.289 440.318 439.945 440.103C439.615 439.873 439.271 439.701 438.913 439.586C438.555 439.457 438.203 439.393 437.859 439.393C437.486 439.393 437.15 439.436 436.848 439.522C436.547 439.594 436.289 439.708 436.074 439.866C435.874 440.009 435.723 440.189 435.623 440.404C435.522 440.604 435.472 440.841 435.472 441.113C435.487 441.314 435.537 441.515 435.623 441.715C435.709 441.902 435.831 442.059 435.988 442.188C436.189 442.346 436.476 442.504 436.848 442.662C437.221 442.805 437.673 442.934 438.203 443.049C438.891 443.221 439.472 443.414 439.945 443.629C440.418 443.83 440.798 444.074 441.085 444.36C441.386 444.618 441.601 444.92 441.73 445.264C441.859 445.608 441.924 446.002 441.924 446.446C441.924 447.091 441.752 447.665 441.407 448.167C441.063 448.654 440.59 449.034 439.988 449.306C439.386 449.579 438.698 449.715 437.924 449.715ZM449.569 449.715C448.436 449.715 447.433 449.471 446.558 448.984C445.684 448.482 444.995 447.794 444.494 446.919C444.006 446.045 443.763 445.049 443.763 443.93C443.763 443.056 443.899 442.26 444.171 441.543C444.458 440.812 444.845 440.189 445.332 439.672C445.834 439.142 446.429 438.733 447.117 438.447C447.805 438.16 448.558 438.017 449.375 438.017C450.092 438.017 450.759 438.146 451.375 438.404C452.006 438.662 452.551 439.034 453.009 439.522C453.468 439.995 453.819 440.561 454.063 441.221C454.307 441.866 454.414 442.583 454.386 443.371L454.364 444.188H444.945L444.601 442.855H453.009L452.708 443.221L452.73 442.683C452.701 442.067 452.529 441.522 452.214 441.049C451.898 440.576 451.49 440.203 450.988 439.93C450.501 439.658 449.963 439.522 449.375 439.522C448.544 439.522 447.827 439.701 447.225 440.06C446.623 440.404 446.164 440.898 445.848 441.543C445.547 442.174 445.39 442.934 445.375 443.823C445.39 444.712 445.576 445.486 445.934 446.145C446.293 446.79 446.795 447.299 447.44 447.672C448.099 448.031 448.859 448.21 449.719 448.21C450.336 448.21 450.909 448.109 451.44 447.909C451.97 447.694 452.508 447.342 453.052 446.855L453.87 448.016C453.526 448.36 453.117 448.661 452.644 448.919C452.185 449.163 451.691 449.357 451.16 449.5C450.63 449.643 450.099 449.715 449.569 449.715ZM456.735 449.5V438.21H458.37V440.619L458.047 440.812C458.205 440.31 458.492 439.852 458.907 439.436C459.323 439.02 459.825 438.683 460.413 438.425C461.001 438.153 461.61 438.017 462.241 438.017C463.086 438.017 463.796 438.181 464.37 438.511C464.957 438.827 465.402 439.321 465.703 439.995C466.004 440.669 466.154 441.522 466.154 442.554V449.5H464.52V442.662C464.52 441.93 464.413 441.328 464.198 440.855C463.997 440.382 463.689 440.038 463.273 439.823C462.871 439.608 462.362 439.508 461.746 439.522C461.259 439.522 460.807 439.601 460.391 439.758C459.99 439.916 459.639 440.131 459.338 440.404C459.036 440.662 458.8 440.956 458.628 441.285C458.456 441.601 458.37 441.916 458.37 442.231V449.5H457.574C457.445 449.5 457.309 449.5 457.166 449.5C457.022 449.5 456.879 449.5 456.735 449.5ZM470.76 449.5V435.329H472.394V449.5H470.76ZM468.158 439.801V438.21H475.211V439.801H468.158Z" fill="white"/>
<path d="M160.093 406.483L193.598 380.626V406.483H160.093Z" fill="#024720"/>
<path d="M560.252 406.483L526.747 380.626V406.483H560.252Z" fill="#024720"/>
<path d="M745.07 29.9992L745.067 30.1484L745.034 30.2939C736.937 66.5045 700.069 97.6405 642.511 91.7625C579.292 85.3065 545.931 41.7985 548.282 9.92059C550.521 -20.435 587.627 -56.0709 650.736 -49.626C712.522 -43.3163 745.758 -1.63647 745.07 29.9992ZM638.693 129.141C713.839 136.815 771.29 94.1749 782.442 34.8967C786.766 -24.4845 729.866 -79.3136 654.554 -87.0047C579.211 -94.6988 515.189 -52.1989 510.811 7.15636C506.428 66.5696 563.346 121.447 638.693 129.141Z" stroke="#FFBC4C" stroke-width="3"/>
</g>
<defs>
<clipPath id="clip0_104_1104">
<rect width="720" height="883" fill="white"/>
</clipPath>
</defs>
</svg>
