<svg width="210" height="45" viewBox="0 0 210 45" fill="none" xmlns="http://www.w3.org/2000/svg">
<path fill-rule="evenodd" clip-rule="evenodd" d="M7.56183 21.1249C5.01139 23.6072 3.56106 26.8005 3.80703 30.1349C3.8768 30.5073 3.96268 30.8738 4.06413 31.2338C2.80587 27.6085 2.53113 23.2294 3.34779 18.6819C5.1321 8.74631 11.7988 1.80785 18.2382 3.18445C23.3366 4.27436 26.764 10.2499 27.0848 17.6227C25.6698 17.0112 24.1079 16.5869 22.4507 16.3839C22.2616 14.7248 21.8783 13.2198 21.3511 11.9385C20.169 9.06601 18.5568 7.88087 17.292 7.61049C16.0873 7.35295 14.3132 7.74309 12.311 9.82695C10.3296 11.8892 8.5628 15.2488 7.80257 19.482C7.7029 20.037 7.62293 20.5851 7.56183 21.1249ZM12.6308 40.0096C10.3907 39.2365 8.46987 37.9888 6.9819 36.3966C8.45224 38.0785 10.3009 39.3213 12.4997 39.972C12.5435 39.9849 12.5872 39.9975 12.6308 40.0096Z" fill="#AB1A39"/>
<path fill-rule="evenodd" clip-rule="evenodd" d="M8.30946 29.5634C9.1918 33.5093 13.218 36.9387 19.566 36.2905C26.5593 35.5763 30.1811 30.777 29.9276 27.3395C29.6869 24.0772 25.6615 20.1384 18.6824 20.8511C11.8495 21.5489 8.23514 26.1466 8.30946 29.5634ZM3.80701 30.135C5.06525 36.8508 11.5664 41.657 20.0258 40.7931C28.4852 39.9292 34.9393 33.7568 34.4413 27.0066C33.9434 20.2564 26.682 15.4846 18.2225 16.3485C9.76311 17.2124 3.30906 23.3848 3.80701 30.135Z" fill="#AB1A39"/>
<path d="M53.9056 36.0422C53.0882 36.0422 52.294 35.9255 51.5233 35.6919C50.7525 35.435 50.0519 35.108 49.4213 34.7109C48.7906 34.3139 48.2651 33.8584 47.8447 33.3446C47.4243 32.8308 47.1557 32.2936 47.0389 31.733L48.16 31.2776L47.9498 35.6218H43.2202V9.76664H48.2301V21.468L47.2491 21.0827C47.3893 20.5221 47.6579 19.9849 48.0549 19.4711C48.452 18.9573 48.9541 18.5018 49.5614 18.1048C50.1686 17.6844 50.8343 17.3574 51.5583 17.1238C52.2824 16.8902 53.0181 16.7735 53.7655 16.7735C55.4004 16.7735 56.8485 17.1939 58.1097 18.0347C59.3709 18.8522 60.3636 19.9966 61.0876 21.468C61.835 22.9161 62.2087 24.5627 62.2087 26.4079C62.2087 28.2763 61.8467 29.9346 61.1226 31.3827C60.3986 32.8308 59.406 33.9752 58.1447 34.816C56.9069 35.6335 55.4938 36.0422 53.9056 36.0422ZM52.7145 31.8031C53.6487 31.8031 54.4545 31.5812 55.1318 31.1375C55.8325 30.6703 56.3814 30.0397 56.7784 29.2456C57.1755 28.4282 57.374 27.4822 57.374 26.4079C57.374 25.3568 57.1755 24.4343 56.7784 23.6402C56.4047 22.8227 55.8675 22.1921 55.1668 21.7483C54.4662 21.2812 53.6487 21.0476 52.7145 21.0476C51.8036 21.0476 50.9978 21.2812 50.2971 21.7483C49.5964 22.1921 49.0476 22.8227 48.6505 23.6402C48.2534 24.4343 48.0549 25.3568 48.0549 26.4079C48.0549 27.4822 48.2534 28.4282 48.6505 29.2456C49.0476 30.0397 49.5964 30.6703 50.2971 31.1375C50.9978 31.5812 51.8036 31.8031 52.7145 31.8031ZM74.7654 36.0422C72.7568 36.0422 70.9934 35.6335 69.4753 34.816C67.9805 33.9986 66.8127 32.8775 65.9719 31.4528C65.1544 30.028 64.7457 28.4048 64.7457 26.583C64.7457 25.1349 64.9792 23.8153 65.4464 22.6242C65.9135 21.4097 66.5674 20.3703 67.4083 19.5061C68.2491 18.642 69.2417 17.9763 70.3862 17.5092C71.554 17.0187 72.8269 16.7735 74.2049 16.7735C75.4661 16.7735 76.6222 17.007 77.6733 17.4741C78.7476 17.9179 79.6702 18.5602 80.441 19.401C81.2351 20.2185 81.8423 21.1878 82.2627 22.3089C82.6831 23.43 82.8817 24.6561 82.8583 25.9874L82.8233 27.5289H67.9338L67.128 24.4459H78.7243L78.1287 25.0766V24.3408C78.082 23.6869 77.8718 23.1146 77.4981 22.6242C77.1477 22.1337 76.6923 21.7483 76.1318 21.468C75.5712 21.1644 74.9523 21.0126 74.275 21.0126C73.2239 21.0126 72.3364 21.2228 71.6124 21.6432C70.9117 22.0403 70.3745 22.6242 70.0008 23.3949C69.6504 24.1423 69.4753 25.0766 69.4753 26.1976C69.4753 27.2954 69.7088 28.2647 70.176 29.1055C70.6431 29.9229 71.3087 30.5536 72.1729 30.9973C73.0604 31.4411 74.0998 31.663 75.2909 31.663C76.1084 31.663 76.8558 31.5345 77.5331 31.2776C78.2104 31.0207 78.9462 30.5769 79.7403 29.9463L82.0876 33.2745C81.4336 33.8584 80.6979 34.3606 79.8804 34.781C79.0629 35.2014 78.2221 35.5167 77.358 35.7269C76.4938 35.9371 75.6296 36.0422 74.7654 36.0422ZM86.5689 35.6919V9.76664H91.5438V35.6919H86.5689ZM96.5933 35.6919V9.76664H101.568V35.6919H96.5933ZM115.034 36.0422C113.026 36.0422 111.262 35.6335 109.744 34.816C108.249 33.9986 107.081 32.8775 106.241 31.4528C105.423 30.028 105.014 28.4048 105.014 26.583C105.014 25.1349 105.248 23.8153 105.715 22.6242C106.182 21.4097 106.836 20.3703 107.677 19.5061C108.518 18.642 109.51 17.9763 110.655 17.5092C111.823 17.0187 113.096 16.7735 114.474 16.7735C115.735 16.7735 116.891 17.007 117.942 17.4741C119.016 17.9179 119.939 18.5602 120.71 19.401C121.504 20.2185 122.111 21.1878 122.531 22.3089C122.952 23.43 123.15 24.6561 123.127 25.9874L123.092 27.5289H108.202L107.397 24.4459H118.993L118.397 25.0766V24.3408C118.351 23.6869 118.14 23.1146 117.767 22.6242C117.416 22.1337 116.961 21.7483 116.4 21.468C115.84 21.1644 115.221 21.0126 114.544 21.0126C113.493 21.0126 112.605 21.2228 111.881 21.6432C111.18 22.0403 110.643 22.6242 110.269 23.3949C109.919 24.1423 109.744 25.0766 109.744 26.1976C109.744 27.2954 109.978 28.2647 110.445 29.1055C110.912 29.9229 111.577 30.5536 112.442 30.9973C113.329 31.4411 114.368 31.663 115.56 31.663C116.377 31.663 117.125 31.5345 117.802 31.2776C118.479 31.0207 119.215 30.5769 120.009 29.9463L122.356 33.2745C121.702 33.8584 120.967 34.3606 120.149 34.781C119.332 35.2014 118.491 35.5167 117.627 35.7269C116.762 35.9371 115.898 36.0422 115.034 36.0422ZM137.488 36.0422C136.671 36.0422 135.876 35.9255 135.106 35.6919C134.335 35.435 133.634 35.108 133.004 34.7109C132.373 34.3139 131.848 33.8584 131.427 33.3446C131.007 32.8308 130.738 32.2936 130.621 31.733L131.742 31.2776L131.532 35.6218H126.803V9.76664H131.812V21.468L130.832 21.0827C130.972 20.5221 131.24 19.9849 131.637 19.4711C132.034 18.9573 132.537 18.5018 133.144 18.1048C133.751 17.6844 134.417 17.3574 135.141 17.1238C135.865 16.8902 136.6 16.7735 137.348 16.7735C138.983 16.7735 140.431 17.1939 141.692 18.0347C142.953 18.8522 143.946 19.9966 144.67 21.468C145.417 22.9161 145.791 24.5627 145.791 26.4079C145.791 28.2763 145.429 29.9346 144.705 31.3827C143.981 32.8308 142.988 33.9752 141.727 34.816C140.489 35.6335 139.076 36.0422 137.488 36.0422ZM136.297 31.8031C137.231 31.8031 138.037 31.5812 138.714 31.1375C139.415 30.6703 139.964 30.0397 140.361 29.2456C140.758 28.4282 140.956 27.4822 140.956 26.4079C140.956 25.3568 140.758 24.4343 140.361 23.6402C139.987 22.8227 139.45 22.1921 138.749 21.7483C138.049 21.2812 137.231 21.0476 136.297 21.0476C135.386 21.0476 134.58 21.2812 133.879 21.7483C133.179 22.1921 132.63 22.8227 132.233 23.6402C131.836 24.4343 131.637 25.3568 131.637 26.4079C131.637 27.4822 131.836 28.4282 132.233 29.2456C132.63 30.0397 133.179 30.6703 133.879 31.1375C134.58 31.5812 135.386 31.8031 136.297 31.8031ZM159.819 35.6919V24.0956C159.819 23.1146 159.516 22.3672 158.908 21.8534C158.324 21.3162 157.53 21.0476 156.526 21.0476C155.568 21.0476 154.716 21.2345 153.969 21.6082C153.221 21.9819 152.52 22.5658 151.867 23.3599L148.819 20.417C149.94 19.2492 151.189 18.35 152.567 17.7194C153.969 17.0888 155.487 16.7735 157.122 16.7735C158.616 16.7735 159.913 17.007 161.01 17.4741C162.131 17.9413 162.996 18.642 163.603 19.5762C164.21 20.5104 164.514 21.6899 164.514 23.1146V35.6919H159.819ZM154.739 36.0422C153.571 36.0422 152.509 35.8087 151.551 35.3416C150.617 34.8744 149.87 34.2321 149.309 33.4147C148.772 32.5739 148.503 31.5929 148.503 30.4718C148.503 29.5142 148.678 28.6734 149.029 27.9494C149.379 27.202 149.893 26.5947 150.57 26.1276C151.271 25.6371 152.135 25.2634 153.163 25.0065C154.214 24.7496 155.428 24.6211 156.806 24.6211H162.272L161.956 27.9494H156.736C156.176 27.9494 155.674 27.9961 155.23 28.0895C154.809 28.1829 154.447 28.3347 154.144 28.5449C153.863 28.7551 153.642 29.0004 153.478 29.2806C153.338 29.5609 153.268 29.8879 153.268 30.2616C153.268 30.6587 153.373 31.009 153.583 31.3126C153.793 31.6163 154.074 31.8498 154.424 32.0133C154.798 32.1768 155.218 32.2586 155.685 32.2586C156.363 32.2586 157.005 32.1418 157.612 31.9082C158.243 31.6746 158.803 31.3477 159.294 30.9273C159.784 30.5068 160.17 30.028 160.45 29.4909L161.396 31.9783C160.905 32.7724 160.31 33.4731 159.609 34.0803C158.908 34.6876 158.149 35.1664 157.332 35.5167C156.514 35.8671 155.65 36.0422 154.739 36.0422ZM168.987 35.6919V17.1588H173.787L173.927 20.9425L172.946 21.3629C173.18 20.5221 173.635 19.763 174.312 19.0857C174.99 18.385 175.796 17.8245 176.73 17.4041C177.664 16.9837 178.633 16.7735 179.638 16.7735C181.039 16.7735 182.207 17.0537 183.141 17.6143C184.099 18.1748 184.811 19.0273 185.278 20.1718C185.769 21.2929 186.014 22.6942 186.014 24.3759V35.6919H181.039V24.7262C181.039 23.8854 180.922 23.1847 180.689 22.6242C180.455 22.0636 180.105 21.6549 179.638 21.398C179.17 21.1411 178.575 21.0243 177.851 21.0476C177.29 21.0476 176.776 21.1411 176.309 21.3279C175.842 21.4914 175.422 21.7366 175.048 22.0636C174.698 22.3906 174.429 22.7643 174.242 23.1847C174.056 23.6051 173.962 24.0722 173.962 24.5861V35.6919H171.475C170.961 35.6919 170.494 35.6919 170.073 35.6919C169.653 35.6919 169.291 35.6919 168.987 35.6919ZM195.475 30.1215L194.109 25.9874L202.798 17.1588H209.349L195.475 30.1215ZM190.781 35.6919V9.76664H195.756V35.6919H190.781ZM203.323 35.6919L196.667 27.3888L200.205 24.551L209.314 35.6919H203.323Z" fill="#AB1A39"/>
</svg>
