<svg width="155" height="45" viewBox="0 0 155 45" fill="none" xmlns="http://www.w3.org/2000/svg">
<path d="M153.518 39.2391C153.518 41.6027 151.563 43.5174 149.146 43.5174H6.06761C3.65121 43.5174 1.68982 41.6027 1.68982 39.2391V5.12082C1.68982 2.75825 3.65121 0.836914 6.06761 0.836914H149.144C151.563 0.836914 153.517 2.75825 153.517 5.12082L153.518 39.2391Z" fill="white"/>
<path d="M148.684 0.888519C151.317 0.888519 153.459 2.97733 153.459 5.54432V38.81C153.459 41.377 151.317 43.4658 148.684 43.4658H6.52329C3.89047 43.4658 1.7481 41.377 1.7481 38.81V5.54432C1.7481 2.97733 3.89047 0.888519 6.52329 0.888519H148.684ZM148.684 4.95911e-05H6.52329C3.39717 4.95911e-05 0.836853 2.49636 0.836853 5.54432V38.81C0.836853 41.8579 3.39717 44.3542 6.52329 44.3542H148.684C151.81 44.3542 154.371 41.8579 154.371 38.81V5.54432C154.371 2.49636 151.81 4.95911e-05 148.684 4.95911e-05Z" fill="#A6A6A6"/>
<path d="M35.1011 21.9376C35.0681 18.3638 38.1024 16.6251 38.2411 16.5442C36.5227 14.1014 33.8591 13.7676 32.9232 13.741C30.6861 13.5114 28.5162 15.0461 27.3766 15.0461C26.2143 15.0461 24.4595 13.7632 22.5682 13.8009C20.1344 13.8374 17.8575 15.2113 16.6088 17.3448C14.0317 21.6948 15.9537 28.0873 18.4228 31.6035C19.6578 33.3256 21.1011 35.2483 22.9901 35.1807C24.8382 35.1064 25.5285 34.0319 27.7587 34.0319C29.9685 34.0319 30.6167 35.1807 32.5433 35.1374C34.5267 35.1064 35.7755 33.4076 36.9674 31.6701C38.3947 29.6963 38.9678 27.7525 38.9906 27.6527C38.944 27.6371 35.1386 26.2211 35.1011 21.9376Z" fill="black"/>
<path d="M31.4618 11.4279C32.4557 10.2159 33.1358 8.56706 32.947 6.8938C31.5084 6.95589 29.7092 7.86405 28.6731 9.04941C27.7565 10.094 26.9376 11.806 27.1492 13.4161C28.7652 13.5336 30.4245 12.621 31.4618 11.4279Z" fill="black"/>
<path d="M56.6209 11.0985C56.6209 12.4036 56.2194 13.3861 55.4176 14.0458C54.675 14.6546 53.6196 14.9595 52.2526 14.9595C51.5747 14.9595 50.9947 14.9307 50.5091 14.873V7.74199C51.1426 7.64219 51.8249 7.59119 52.5619 7.59119C53.8641 7.59119 54.8456 7.86729 55.5075 8.4195C56.249 9.04379 56.6209 9.93641 56.6209 11.0985ZM55.3642 11.1307C55.3642 10.2846 55.1344 9.63591 54.675 9.1835C54.2155 8.7322 53.5445 8.50599 52.6608 8.50599C52.2855 8.50599 51.966 8.53039 51.701 8.58139V14.0026C51.8477 14.0248 52.1161 14.0347 52.5062 14.0347C53.4183 14.0347 54.1223 13.7875 54.6181 13.2929C55.114 12.7984 55.3642 12.0776 55.3642 11.1307Z" fill="black"/>
<path d="M63.2843 12.2384C63.2843 13.0423 63.0489 13.701 62.578 14.2177C62.0845 14.7489 61.4305 15.0139 60.614 15.0139C59.827 15.0139 59.2003 14.76 58.7329 14.2499C58.2666 13.7409 58.0334 13.0989 58.0334 12.3249C58.0334 11.5154 58.2734 10.8512 58.7556 10.3356C59.2378 9.82001 59.8861 9.56165 60.7027 9.56165C61.4897 9.56165 62.122 9.81557 62.6008 10.3245C63.0557 10.8191 63.2843 11.4578 63.2843 12.2384ZM62.0481 12.2761C62.0481 11.7938 61.9412 11.3802 61.7285 11.0353C61.4783 10.6184 61.1223 10.4099 60.6594 10.4099C60.1806 10.4099 59.8167 10.6184 59.5665 11.0353C59.3527 11.3802 59.2469 11.8004 59.2469 12.2972C59.2469 12.7795 59.3538 13.1931 59.5665 13.538C59.8247 13.9549 60.1841 14.1634 60.6481 14.1634C61.103 14.1634 61.4601 13.9516 61.7171 13.5269C61.9378 13.1754 62.0481 12.7585 62.0481 12.2761Z" fill="black"/>
<path d="M72.2188 9.66809L70.5413 14.8952H69.4495L68.7547 12.6254C68.5784 12.0588 68.4351 11.4955 68.3236 10.9366H68.302C68.1985 11.511 68.0552 12.0732 67.871 12.6254L67.1329 14.8952H66.0286L64.4512 9.66809H65.676L66.2822 12.153C66.4289 12.7407 66.5495 13.3007 66.6461 13.8307H66.6677C66.7564 13.3938 66.9032 12.8372 67.1101 12.1641L67.871 9.6692H68.8422L69.5712 12.1109C69.7475 12.7064 69.8908 13.2796 70.0011 13.8318H70.0341C70.1149 13.294 70.2365 12.7208 70.398 12.1109L71.0486 9.6692H72.2188V9.66809Z" fill="black"/>
<path d="M78.3977 14.8953H77.2058V11.9014C77.2058 10.9788 76.8464 10.5175 76.1254 10.5175C75.7717 10.5175 75.4862 10.6439 75.2645 10.8978C75.045 11.1518 74.9335 11.4512 74.9335 11.7938V14.8942H73.7416V11.1618C73.7416 10.7027 73.7269 10.2048 73.6984 9.66591H74.7459L74.8016 10.4831H74.8346C74.9733 10.2292 75.1803 10.0196 75.4521 9.8522C75.7751 9.65704 76.1368 9.55835 76.5325 9.55835C77.0329 9.55835 77.4492 9.71581 77.7801 10.0318C78.1918 10.4188 78.3977 10.9965 78.3977 11.7639V14.8953Z" fill="black"/>
<path d="M81.6844 14.8952H80.4937V7.26965H81.6844V14.8952Z" fill="black"/>
<path d="M88.7015 12.2384C88.7015 13.0423 88.4661 13.701 87.9953 14.2177C87.5017 14.7489 86.8466 15.0139 86.0312 15.0139C85.2431 15.0139 84.6164 14.76 84.1501 14.2499C83.6838 13.7409 83.4507 13.0989 83.4507 12.3249C83.4507 11.5154 83.6907 10.8512 84.1729 10.3356C84.6551 9.82001 85.3033 9.56165 86.1188 9.56165C86.9069 9.56165 87.5381 9.81557 88.018 10.3245C88.4729 10.8191 88.7015 11.4578 88.7015 12.2384ZM87.4642 12.2761C87.4642 11.7938 87.3573 11.3802 87.1446 11.0353C86.8955 10.6184 86.5384 10.4099 86.0767 10.4099C85.5967 10.4099 85.2328 10.6184 84.9837 11.0353C84.7699 11.3802 84.6642 11.8004 84.6642 12.2972C84.6642 12.7795 84.7711 13.1931 84.9837 13.538C85.2419 13.9549 85.6013 14.1634 86.0653 14.1634C86.5202 14.1634 86.8762 13.9516 87.1332 13.5269C87.355 13.1754 87.4642 12.7585 87.4642 12.2761Z" fill="black"/>
<path d="M94.4698 14.8952H93.3996L93.3109 14.2931H93.2779C92.9117 14.7733 92.3897 15.0139 91.7119 15.0139C91.2058 15.0139 90.7963 14.8553 90.4881 14.5404C90.2084 14.2543 90.0685 13.8984 90.0685 13.4759C90.0685 12.8372 90.3414 12.3504 90.8907 12.0133C91.4389 11.6762 92.21 11.511 93.2028 11.5188V11.4212C93.2028 10.7326 92.8321 10.3889 92.0894 10.3889C91.5606 10.3889 91.0943 10.5186 90.6917 10.7758L90.4495 10.0129C90.9476 9.71245 91.5629 9.56165 92.2885 9.56165C93.6896 9.56165 94.3924 10.2824 94.3924 11.7239V13.6489C94.3924 14.1712 94.4186 14.587 94.4698 14.8952ZM93.2324 13.0989V12.2928C91.9177 12.2706 91.2604 12.6221 91.2604 13.3462C91.2604 13.6189 91.3354 13.823 91.489 13.9594C91.6425 14.0958 91.8381 14.1634 92.0712 14.1634C92.3328 14.1634 92.5773 14.0824 92.8002 13.9217C93.0243 13.7598 93.1619 13.5546 93.2131 13.3029C93.2256 13.2464 93.2324 13.1776 93.2324 13.0989Z" fill="black"/>
<path d="M101.242 14.8952H100.185L100.129 14.0558H100.096C99.7582 14.6945 99.1827 15.0139 98.3741 15.0139C97.7281 15.0139 97.1902 14.7666 96.7637 14.2721C96.3372 13.7775 96.1246 13.1355 96.1246 12.3471C96.1246 11.501 96.3554 10.8158 96.8195 10.2924C97.2687 9.8045 97.8191 9.56055 98.4742 9.56055C99.1941 9.56055 99.6979 9.79673 99.9845 10.2702H100.007V7.26965H101.2V13.487C101.2 13.996 101.214 14.465 101.242 14.8952ZM100.007 12.6908V11.8193C100.007 11.6685 99.9959 11.5465 99.9743 11.4534C99.9072 11.1739 99.7627 10.9389 99.5432 10.7492C99.3215 10.5596 99.0542 10.4643 98.746 10.4643C98.3013 10.4643 97.9533 10.6361 97.6974 10.981C97.4438 11.3258 97.3153 11.7661 97.3153 12.3039C97.3153 12.8206 97.437 13.2397 97.6815 13.5624C97.9397 13.9062 98.2877 14.078 98.7233 14.078C99.1145 14.078 99.4272 13.935 99.6649 13.6478C99.8947 13.3828 100.007 13.0634 100.007 12.6908Z" fill="black"/>
<path d="M111.436 12.2384C111.436 13.0423 111.2 13.701 110.73 14.2177C110.236 14.7489 109.583 15.0139 108.766 15.0139C107.98 15.0139 107.353 14.76 106.884 14.2499C106.418 13.7409 106.185 13.0989 106.185 12.3249C106.185 11.5154 106.425 10.8512 106.907 10.3356C107.389 9.82001 108.038 9.56165 108.855 9.56165C109.641 9.56165 110.275 9.81557 110.752 10.3245C111.207 10.8191 111.436 11.4578 111.436 12.2384ZM110.201 12.2761C110.201 11.7938 110.094 11.3802 109.881 11.0353C109.63 10.6184 109.275 10.4099 108.811 10.4099C108.333 10.4099 107.969 10.6184 107.718 11.0353C107.504 11.3802 107.398 11.8004 107.398 12.2972C107.398 12.7795 107.505 13.1931 107.718 13.538C107.976 13.9549 108.336 14.1634 108.8 14.1634C109.255 14.1634 109.613 13.9516 109.87 13.5269C110.089 13.1754 110.201 12.7585 110.201 12.2761Z" fill="black"/>
<path d="M117.844 14.8953H116.654V11.9014C116.654 10.9788 116.294 10.5175 115.572 10.5175C115.218 10.5175 114.933 10.6439 114.712 10.8978C114.492 11.1518 114.381 11.4512 114.381 11.7938V14.8942H113.188V11.1618C113.188 10.7027 113.175 10.2048 113.146 9.66591H114.193L114.248 10.4831H114.281C114.421 10.2292 114.628 10.0196 114.899 9.8522C115.223 9.65704 115.584 9.55835 115.98 9.55835C116.48 9.55835 116.896 9.71581 117.227 10.0318C117.64 10.4188 117.844 10.9965 117.844 11.7639V14.8953Z" fill="black"/>
<path d="M125.866 10.5386H124.553V13.0779C124.553 13.7232 124.787 14.0459 125.248 14.0459C125.462 14.0459 125.639 14.0281 125.779 13.9916L125.81 14.8731C125.575 14.9596 125.265 15.0028 124.884 15.0028C124.413 15.0028 124.047 14.8631 123.782 14.5837C123.516 14.3043 123.384 13.8341 123.384 13.1743V10.5386H122.601V9.66813H123.384V8.71008L124.552 8.36633V9.66702H125.865V10.5386H125.866Z" fill="black"/>
<path d="M132.175 14.8952H130.982V11.9235C130.982 10.9865 130.623 10.5175 129.903 10.5175C129.35 10.5175 128.973 10.7892 128.766 11.3325C128.731 11.4467 128.71 11.5864 128.71 11.7505V14.8941H127.519V7.26965H128.71V10.4199H128.733C129.108 9.84663 129.646 9.56055 130.343 9.56055C130.837 9.56055 131.245 9.718 131.569 10.034C131.973 10.4277 132.175 11.0131 132.175 11.7871V14.8952Z" fill="black"/>
<path d="M138.684 12.0344C138.684 12.2428 138.668 12.418 138.64 12.5611H135.065C135.081 13.0778 135.252 13.4714 135.583 13.7442C135.885 13.9882 136.275 14.1101 136.753 14.1101C137.282 14.1101 137.764 14.0281 138.198 13.8629L138.385 14.6701C137.877 14.8852 137.278 14.9928 136.586 14.9928C135.756 14.9928 135.102 14.7544 134.629 14.2776C134.153 13.8008 133.918 13.161 133.918 12.3581C133.918 11.5698 134.137 10.9133 134.58 10.3899C135.041 9.83107 135.666 9.55164 136.454 9.55164C137.225 9.55164 137.811 9.83107 138.206 10.3899C138.526 10.8335 138.684 11.3824 138.684 12.0344ZM137.547 11.7339C137.556 11.389 137.477 11.0918 137.316 10.8412C137.109 10.5186 136.794 10.3567 136.367 10.3567C135.978 10.3567 135.661 10.5141 135.419 10.8301C135.221 11.0819 135.104 11.3824 135.065 11.7339H137.547Z" fill="black"/>
<path d="M61.8464 34.9333H59.2637L57.8489 30.5988H52.9313L51.5836 34.9333H49.069L53.9412 20.1766H56.9504L61.8464 34.9333ZM57.4224 28.7802L56.143 24.927C56.0076 24.5333 55.754 23.6063 55.3798 22.1471H55.3343C55.1854 22.7747 54.9454 23.7017 54.6156 24.927L53.3589 28.7802H57.4224Z" fill="black"/>
<path d="M74.3759 29.4822C74.3759 31.2919 73.8744 32.7223 72.8713 33.7724C71.9729 34.7072 70.8572 35.174 69.5254 35.174C68.0879 35.174 67.0552 34.6706 66.4263 33.6637H66.3808V39.269H63.9561V27.7957C63.9561 26.658 63.9254 25.4903 63.8663 24.2928H65.9987L66.134 25.9794H66.1795C66.9881 24.7086 68.2153 24.0743 69.862 24.0743C71.1495 24.0743 72.2242 24.57 73.084 25.5624C73.946 26.556 74.3759 27.8622 74.3759 29.4822ZM71.9058 29.5687C71.9058 28.533 71.6669 27.6792 71.187 27.0073C70.6627 26.3065 69.9587 25.9561 69.0762 25.9561C68.478 25.9561 67.9343 26.1512 67.4487 26.536C66.962 26.9241 66.6435 27.4308 66.4945 28.0585C66.4195 28.3512 66.3819 28.5907 66.3819 28.7792V30.5534C66.3819 31.3274 66.6253 31.9805 67.1121 32.5138C67.5988 33.0472 68.2312 33.3133 69.0091 33.3133C69.9223 33.3133 70.6331 32.9696 71.1415 32.2843C71.651 31.5979 71.9058 30.6931 71.9058 29.5687Z" fill="black"/>
<path d="M86.9282 29.4822C86.9282 31.2919 86.4267 32.7223 85.4224 33.7724C84.5251 34.7072 83.4094 35.174 82.0777 35.174C80.6401 35.174 79.6075 34.6706 78.9797 33.6637H78.9342V39.269H76.5095V27.7957C76.5095 26.658 76.4788 25.4903 76.4197 24.2928H78.5521L78.6874 25.9794H78.7329C79.5404 24.7086 80.7675 24.0743 82.4155 24.0743C83.7017 24.0743 84.7765 24.57 85.6385 25.5624C86.4972 26.556 86.9282 27.8622 86.9282 29.4822ZM84.458 29.5687C84.458 28.533 84.2181 27.6792 83.7381 27.0073C83.2138 26.3065 82.5121 25.9561 81.6285 25.9561C81.0291 25.9561 80.4866 26.1512 79.9999 26.536C79.5131 26.9241 79.1958 27.4308 79.0468 28.0585C78.9729 28.3512 78.9342 28.5907 78.9342 28.7792V30.5534C78.9342 31.3274 79.1776 31.9805 79.6621 32.5138C80.1488 33.0461 80.7812 33.3133 81.5614 33.3133C82.4746 33.3133 83.1854 32.9696 83.6938 32.2843C84.2033 31.5979 84.458 30.6931 84.458 29.5687Z" fill="black"/>
<path d="M100.962 30.7951C100.962 32.0503 100.515 33.0716 99.6181 33.8599C98.632 34.7215 97.2593 35.1518 95.4954 35.1518C93.8668 35.1518 92.5612 34.8457 91.5729 34.2325L92.1347 32.2621C93.1992 32.8897 94.3672 33.2046 95.6398 33.2046C96.5531 33.2046 97.2639 33.0028 97.7745 32.6014C98.2829 32.2 98.5365 31.6611 98.5365 30.9891C98.5365 30.3903 98.3272 29.8858 97.9076 29.4766C97.4902 29.0675 96.793 28.6871 95.8195 28.3356C93.1696 27.372 91.8458 25.9605 91.8458 24.1042C91.8458 22.8912 92.3098 21.8965 93.239 21.1225C94.1648 20.3474 95.3998 19.9604 96.9443 19.9604C98.3215 19.9604 99.4657 20.1944 100.379 20.6612L99.7727 22.5884C98.9198 22.136 97.9553 21.9098 96.876 21.9098C96.0231 21.9098 95.3566 22.115 94.879 22.523C94.4752 22.8878 94.2728 23.3325 94.2728 23.8592C94.2728 24.4424 94.5037 24.9248 94.9677 25.304C95.3714 25.6544 96.105 26.0336 97.1695 26.4428C98.4717 26.954 99.4281 27.5517 100.043 28.2369C100.656 28.92 100.962 29.7749 100.962 30.7951Z" fill="black"/>
<path d="M108.979 26.0669H106.306V31.2331C106.306 32.5471 106.777 33.2035 107.721 33.2035C108.155 33.2035 108.514 33.1669 108.798 33.0937L108.865 34.889C108.388 35.0631 107.759 35.1507 106.98 35.1507C106.022 35.1507 105.274 34.8657 104.734 34.2968C104.196 33.7269 103.925 32.7711 103.925 31.4282V26.0647H102.333V24.2905H103.925V22.3423L106.306 21.6415V24.2905H108.979V26.0669Z" fill="black"/>
<path d="M121.038 29.5255C121.038 31.161 120.558 32.5038 119.6 33.5539C118.596 34.6351 117.263 35.174 115.601 35.174C114 35.174 112.725 34.6561 111.774 33.6205C110.824 32.5848 110.348 31.2775 110.348 29.7018C110.348 28.0529 110.837 26.7023 111.819 25.6522C112.798 24.601 114.12 24.0754 115.781 24.0754C117.382 24.0754 118.671 24.5933 119.643 25.6301C120.574 26.6358 121.038 27.9343 121.038 29.5255ZM118.522 29.602C118.522 28.6206 118.307 27.779 117.871 27.0771C117.363 26.2277 116.636 25.8041 115.695 25.8041C114.72 25.8041 113.98 26.2288 113.471 27.0771C113.036 27.7801 112.821 28.6351 112.821 29.6463C112.821 30.6277 113.036 31.4693 113.471 32.1701C113.996 33.0195 114.728 33.443 115.673 33.443C116.599 33.443 117.326 33.0106 117.85 32.1479C118.297 31.4327 118.522 30.5822 118.522 29.602Z" fill="black"/>
<path d="M128.919 26.3719C128.679 26.3286 128.423 26.3065 128.155 26.3065C127.302 26.3065 126.642 26.6203 126.178 27.249C125.775 27.8034 125.572 28.5042 125.572 29.3503V34.9334H123.149L123.171 27.6437C123.171 26.4174 123.141 25.3007 123.08 24.2939H125.192L125.281 26.3298H125.348C125.604 25.6301 126.008 25.0668 126.56 24.6443C127.101 24.264 127.684 24.0743 128.313 24.0743C128.537 24.0743 128.739 24.0899 128.919 24.1176V26.3719Z" fill="black"/>
<path d="M139.763 29.1097C139.763 29.5333 139.735 29.8903 139.674 30.182H132.4C132.429 31.2332 132.78 32.0371 133.456 32.5915C134.069 33.0872 134.861 33.3356 135.835 33.3356C136.912 33.3356 137.895 33.1681 138.778 32.8321L139.158 34.4732C138.125 34.9124 136.906 35.1308 135.499 35.1308C133.807 35.1308 132.479 34.6451 131.512 33.6749C130.548 32.7046 130.064 31.4017 130.064 29.7673C130.064 28.1627 130.514 26.8266 131.413 25.761C132.355 24.6233 133.628 24.0544 135.229 24.0544C136.802 24.0544 137.992 24.6233 138.801 25.761C139.441 26.6647 139.763 27.7824 139.763 29.1097ZM137.451 28.4965C137.467 27.7957 137.309 27.1903 136.98 26.6791C136.561 26.0216 135.916 25.6933 135.048 25.6933C134.255 25.6933 133.61 26.0138 133.118 26.6569C132.714 27.1681 132.474 27.7813 132.4 28.4954H137.451V28.4965Z" fill="black"/>
</svg>
