<svg width="148" height="31" viewBox="0 0 148 31" fill="none" xmlns="http://www.w3.org/2000/svg">
<path d="M13.6004 7.83027C10.3814 7.6562 7.24251 6.87425 4.3385 5.54796C7.10712 2.44501 11.1357 0.488745 15.623 0.488745C19.9002 0.488745 23.7603 2.26817 26.5095 5.12245C22.5252 7.13121 18.0766 8.07066 13.6004 7.83027Z" fill="#4E133F"/>
<path d="M17.988 30.5487C17.2171 30.6703 16.4269 30.7338 15.6228 30.7338C12.3292 30.7338 9.28431 29.6783 6.80029 27.8906L15.0039 19.3167C16.8524 22.7899 17.8665 26.6334 17.988 30.5487Z" fill="#4E133F"/>
<path d="M2.41236 22.9725C1.1966 20.7952 0.500305 18.2863 0.500305 15.6117C0.500305 13.6471 0.878848 11.771 1.56133 10.0496C4.86046 10.8398 7.97723 12.2739 10.7237 14.2854L2.41236 22.9725Z" fill="#4E133F"/>
<path d="M23.65 21.4692C24.3711 16.8963 26.3219 12.6218 29.2673 9.08784C30.2151 11.0634 30.7456 13.2767 30.7456 15.6115C30.7456 21.0686 27.8554 25.8487 23.5201 28.5068C23.241 26.1803 23.2797 23.8123 23.65 21.4692Z" fill="#4E133F"/>
<path d="M49.2701 8.9122H49.1311C47.7579 8.85658 46.4056 9.23551 45.2653 10.0038C44.3024 10.7234 43.5688 11.7038 43.1551 12.8301V2.57471H39.783V28.2828H43.1412V17.4364C43.0752 16.0041 43.5584 14.5961 44.4936 13.508C44.949 13.0074 45.5087 12.6181 46.1344 12.3573C46.7602 12.1001 47.4311 11.9819 48.109 12.0097C48.7174 11.9854 49.3258 12.0862 49.8959 12.3052C50.466 12.5242 50.984 12.8545 51.422 13.2786C52.2807 14.1233 52.7083 15.3088 52.7048 16.8349V28.2793H56.0839V17.5372C56.0839 14.7734 55.5068 12.6424 54.3561 11.1475C53.1985 9.65268 51.5055 8.90873 49.2701 8.9122Z" fill="#4E133F"/>
<path d="M74.4418 20.6723C74.4418 22.2472 73.9968 23.4917 73.1034 24.406C72.6549 24.8579 72.1161 25.2091 71.5216 25.4455C70.9306 25.6784 70.2944 25.7861 69.6583 25.7618C69.0603 25.7931 68.4659 25.6992 67.9096 25.4837C67.3534 25.2682 66.8459 24.9414 66.4217 24.5173C65.6256 23.6864 65.2293 22.5322 65.2293 21.0478V9.44006H61.8503V20.3595C61.8503 23.1058 62.4482 25.2056 63.6476 26.6622C64.8469 28.1188 66.5608 28.8489 68.7961 28.8489H68.9317C70.2458 28.9045 71.546 28.5534 72.6584 27.8442C73.67 27.1246 74.4349 26.1095 74.8555 24.9414C74.9806 24.6146 75.0849 24.2843 75.1753 23.9471V28.2857H77.8452V9.44354H74.4731L74.4418 20.6723Z" fill="#4E133F"/>
<path d="M101.058 11.6966C100.238 10.7892 99.2331 10.0627 98.1137 9.57596C96.9908 9.08578 95.7776 8.84591 94.5573 8.86329C93.1946 8.84591 91.8492 9.16922 90.636 9.79497C89.4192 10.4485 88.4249 11.4463 87.7714 12.663C87.7575 12.6873 87.7436 12.7117 87.7331 12.736V2.57446H84.361V28.2825H87.017V24.375C87.1004 24.5558 87.17 24.7435 87.2673 24.9174C87.9174 26.1654 88.9116 27.1979 90.1319 27.8897C91.3973 28.5885 92.8261 28.943 94.2723 28.9152C95.5725 28.9291 96.8622 28.6649 98.0511 28.14C99.1636 27.6394 100.165 26.9128 100.985 26.009C101.809 25.1016 102.449 24.0413 102.869 22.8906C103.307 21.6843 103.53 20.4085 103.52 19.1257V18.4895C103.526 17.2171 103.314 15.9552 102.89 14.7593C102.48 13.6295 101.858 12.59 101.058 11.6966ZM99.3687 22.543C98.8924 23.5685 98.138 24.4411 97.1925 25.0599C96.2017 25.6856 95.051 26.0055 93.8794 25.9777C92.8052 25.9846 91.7449 25.7308 90.7889 25.2407C89.8399 24.7574 89.0368 24.0274 88.4667 23.127C87.8583 22.1293 87.5524 20.9786 87.5906 19.8105V18.1766C87.5558 16.9738 87.8548 15.7848 88.4528 14.7419C89.002 13.8172 89.7947 13.0593 90.7472 12.5622C91.7136 12.0546 92.7878 11.7939 93.876 11.8043C95.0267 11.78 96.1565 12.079 97.1473 12.6665C98.0963 13.254 98.8611 14.1057 99.3444 15.1139C99.8936 16.268 100.165 17.5335 100.133 18.8128C100.165 20.0921 99.9041 21.3645 99.3722 22.5291V22.543H99.3687Z" fill="#4E133F"/>
<path d="M120.745 20.6723C120.745 22.2472 120.3 23.4917 119.407 24.406C118.958 24.8579 118.42 25.2091 117.825 25.4455C117.234 25.6784 116.598 25.7861 115.962 25.7618C115.364 25.7931 114.769 25.6992 114.213 25.4837C113.657 25.2682 113.149 24.9414 112.725 24.5173C111.929 23.6864 111.533 22.5322 111.533 21.0478V9.44006H108.154V20.3595C108.154 23.1058 108.752 25.2056 109.951 26.6622C111.15 28.1188 112.861 28.8489 115.086 28.8489H115.221C116.535 28.9045 117.835 28.5534 118.948 27.8442C119.96 27.1246 120.724 26.1095 121.145 24.9414C121.27 24.6146 121.374 24.2843 121.465 23.9471V28.2857H124.135V9.44354H120.763L120.745 20.6723Z" fill="#4E133F"/>
<path d="M138.677 17.5056L145.598 9.47514H142.045L134.032 18.8163V2.57446H130.66V28.2825H134.032V19.5115H136.528L143.596 28.2825H147.5L138.677 17.5056Z" fill="#4E133F"/>
</svg>
