<svg width="49" height="49" viewBox="0 0 49 49" fill="none" xmlns="http://www.w3.org/2000/svg">
<path d="M24.4406 42.6113C34.3817 42.6113 42.4406 34.5525 42.4406 24.6113C42.4406 14.6702 34.3817 6.61133 24.4406 6.61133C14.4994 6.61133 6.44055 14.6702 6.44055 24.6113C6.44055 34.5525 14.4994 42.6113 24.4406 42.6113Z" stroke="#ED783D" stroke-width="2" stroke-miterlimit="10"/>
<path d="M19.9406 16.3613H28.9406L23.6906 23.8613C24.5539 23.8614 25.4039 24.0744 26.1653 24.4814C26.9266 24.8884 27.5759 25.4769 28.0555 26.1948C28.5351 26.9126 28.8303 27.7377 28.9149 28.5969C28.9995 29.4561 28.8709 30.3228 28.5405 31.1205C28.2101 31.9181 27.6881 32.6219 27.0208 33.1696C26.3534 33.7173 25.5612 34.092 24.7145 34.2604C23.8678 34.4289 22.9925 34.3859 22.1664 34.1353C21.3402 33.8847 20.5886 33.4343 19.9781 32.8238" stroke="#ED783D" stroke-width="2" stroke-linecap="round" stroke-linejoin="round"/>
</svg>
