<svg width="28" height="24" viewBox="0 0 28 24" fill="none" xmlns="http://www.w3.org/2000/svg">
<path d="M12.9997 6.00045C12.9997 3.25045 15.3122 0.962955 18.0622 1.00045C19.0253 1.01157 19.9646 1.3006 20.7673 1.8328C21.5701 2.365 22.202 3.11771 22.5872 4.00045H26.9997L22.9622 8.03795C22.7016 12.0937 20.9063 15.8979 17.9412 18.6773C14.9761 21.4566 11.0638 23.0025 6.9997 23.0005C2.9997 23.0005 1.9997 21.5005 1.9997 21.5005C1.9997 21.5005 5.9997 20.0005 7.9997 17.0005C7.9997 17.0005 -0.000301421 13.0005 1.9997 2.00045C1.9997 2.00045 6.9997 7.00045 12.9997 8.00045V6.00045Z" stroke="#4E133F" stroke-width="2" stroke-linecap="round" stroke-linejoin="round"/>
</svg>
