<svg width="49" height="49" viewBox="0 0 49 49" fill="none" xmlns="http://www.w3.org/2000/svg">
<path d="M24.4406 42.6113C34.3817 42.6113 42.4406 34.5525 42.4406 24.6113C42.4406 14.6702 34.3817 6.61133 24.4406 6.61133C14.4994 6.61133 6.44055 14.6702 6.44055 24.6113C6.44055 34.5525 14.4994 42.6113 24.4406 42.6113Z" stroke="#ED783D" stroke-width="2" stroke-miterlimit="10"/>
<path d="M20.2968 18.3676C20.7012 17.4126 21.4231 16.6266 22.3403 16.1426C23.2576 15.6585 24.3138 15.5062 25.3304 15.7112C26.3471 15.9163 27.2617 16.4663 27.9195 17.2681C28.5773 18.0699 28.938 19.0743 28.9406 20.1114C28.9446 21.0074 28.6765 21.8835 28.1718 22.6239V22.6239L19.9406 33.6114H28.9406" stroke="#ED783D" stroke-width="2" stroke-linecap="round" stroke-linejoin="round"/>
</svg>
